<svg width="33" height="31" viewBox="0 0 33 31" fill="none" xmlns="http://www.w3.org/2000/svg">
<path d="M5.41406 29.0625H1.80469C1.59957 29.0625 1.40283 28.9859 1.25778 28.8496C1.11274 28.7135 1.03125 28.5287 1.03125 28.3359V5.57031C1.03125 5.37762 1.11274 5.19281 1.25778 5.05655C1.40283 4.92029 1.59957 4.84375 1.80469 4.84375H5.41406C5.61918 4.84375 5.81592 4.92029 5.96097 5.05655C6.10602 5.19281 6.1875 5.37762 6.1875 5.57031V28.3359C6.1875 28.5287 6.10602 28.7135 5.96097 28.8496C5.81592 28.9859 5.61918 29.0625 5.41406 29.0625Z" fill="#816C6C"/>
<path d="M15.4688 12.5938V9.44531C15.4688 9.25262 15.3872 9.06781 15.2422 8.93155C15.0972 8.79529 14.9005 8.71875 14.6953 8.71875H7.99219C7.78707 8.71875 7.59033 8.79529 7.44528 8.93155C7.30023 9.06781 7.21875 9.25262 7.21875 9.44531V12.5938H15.4688Z" fill="#816C6C"/>
<path d="M7.21875 25.1875V28.3359C7.21875 28.5287 7.30023 28.7135 7.44528 28.8496C7.59033 28.9859 7.78707 29.0625 7.99219 29.0625H14.6953C14.9005 29.0625 15.0972 28.9859 15.2422 28.8496C15.3872 28.7135 15.4688 28.5287 15.4688 28.3359V25.1875H7.21875Z" fill="#816C6C"/>
<path d="M15.4688 14.5312H7.21875V23.25H15.4688V14.5312Z" fill="#816C6C"/>
<path d="M21.9141 29.0625H17.2734C17.0683 29.0625 16.8715 28.9859 16.7266 28.8496C16.5815 28.7135 16.5 28.5287 16.5 28.3359V2.66406C16.5 2.47137 16.5815 2.28656 16.7266 2.1503C16.8715 2.01404 17.0683 1.9375 17.2734 1.9375H21.9141C22.1192 1.9375 22.316 2.01404 22.4609 2.1503C22.606 2.28656 22.6875 2.47137 22.6875 2.66406V28.3359C22.6875 28.5287 22.606 28.7135 22.4609 28.8496C22.316 28.9859 22.1192 29.0625 21.9141 29.0625Z" fill="#816C6C"/>
<path d="M23.7829 6.09732L25.7166 28.3682C25.7251 28.466 25.7547 28.5609 25.8033 28.6476C25.852 28.7343 25.9188 28.8109 25.9998 28.8726C26.0808 28.9343 26.1743 28.9801 26.2745 29.0071C26.3749 29.0339 26.48 29.0416 26.5835 29.0294L31.2344 28.4845C31.4324 28.4612 31.6133 28.367 31.7389 28.2215C31.8647 28.0759 31.9257 27.8903 31.9092 27.7035L29.9704 5.52272C29.9619 5.42639 29.933 5.33261 29.8854 5.24691C29.8379 5.16121 29.7724 5.08529 29.6932 5.0236C29.614 4.96191 29.5224 4.9157 29.424 4.88766C29.3255 4.85963 29.222 4.85034 29.1197 4.86034L24.4707 5.31505C24.2701 5.33542 24.0858 5.42861 23.9574 5.57475C23.829 5.7209 23.7663 5.90843 23.7829 6.09732Z" fill="#816C6C"/>
</svg>
