<svg width="35" height="36" viewBox="0 0 35 36" fill="none" xmlns="http://www.w3.org/2000/svg">
<path fill-rule="evenodd" clip-rule="evenodd" d="M13.2973 2.67619C13.5036 2.4014 13.822 2.24048 14.1595 2.24048C16.8377 2.24048 20.3805 4.16927 23.2036 7.52966C26.0731 10.9452 28.319 15.9639 28.319 22.4061C28.319 25.3773 27.1715 28.2269 25.1288 30.3279C23.0862 32.4289 20.3158 33.6092 17.4271 33.6092C14.5384 33.6092 11.768 32.4289 9.72533 30.3279C7.68269 28.2269 6.53516 25.3773 6.53516 22.4061C6.53516 20.526 7.1451 18.8052 7.9473 17.2195C8.55513 16.018 9.31309 14.8232 10.0417 13.6747C10.2618 13.3277 10.4793 12.9849 10.6891 12.6475C12.5617 9.63572 13.929 6.88012 13.1058 3.64441C13.0204 3.30857 13.0911 2.95097 13.2973 2.67619ZM15.4896 4.68522C15.8071 8.22968 14.1547 11.2324 12.5243 13.8546C12.2887 14.2335 12.0545 14.603 11.8243 14.9659C11.109 16.0939 10.4333 17.1596 9.87972 18.2538C9.15875 19.6789 8.71354 21.0303 8.71354 22.4061C8.71354 24.7831 9.63157 27.0627 11.2657 28.7435C12.8998 30.4243 15.1161 31.3686 17.4271 31.3686C19.7381 31.3686 21.9544 30.4243 23.5885 28.7435C25.2226 27.0627 26.1406 24.7831 26.1406 22.4061C26.1406 16.5249 24.0978 12.0209 21.5554 8.99465C19.5278 6.58124 17.2526 5.17953 15.4896 4.68522Z" fill="#FF3B30"/>
<path fill-rule="evenodd" clip-rule="evenodd" d="M14.4089 16.0904C14.6158 15.8332 14.9235 15.6843 15.248 15.6843C16.2581 15.6843 17.237 16.1127 18.0897 16.7117C18.9525 17.3178 19.7623 18.1509 20.4564 19.0947C21.8294 20.9615 22.8724 23.4338 22.8724 25.7671C22.8724 27.9934 22.269 29.6957 21.2159 30.8499C20.1627 32.0041 18.769 32.489 17.4264 32.489C16.0839 32.489 14.6901 32.0041 13.6369 30.8499C12.5838 29.6957 11.9805 27.9934 11.9805 25.7671C11.9805 23.514 12.7371 21.8254 13.3421 20.4754C13.3527 20.4517 13.3633 20.4281 13.3738 20.4046C14.0083 18.9881 14.3755 18.08 14.1781 17.0143C14.1174 16.6863 14.202 16.3476 14.4089 16.0904ZM16.3675 18.2562C16.2324 19.379 15.7879 20.3707 15.3903 21.2575C15.3776 21.2858 15.3649 21.314 15.3523 21.3421C14.7369 22.7163 14.1589 24.019 14.1589 25.7671C14.1589 27.5817 14.6447 28.6802 15.2254 29.3166C15.806 29.9529 16.5906 30.2484 17.4264 30.2484C18.2622 30.2484 19.0469 29.9529 19.6275 29.3166C20.2082 28.6802 20.694 27.5817 20.694 25.7671C20.694 24.0597 19.899 22.0507 18.7191 20.4465C18.1369 19.6547 17.4916 19.0049 16.8611 18.5619C16.69 18.4417 16.5252 18.3403 16.3675 18.2562Z" fill="#FF3B30"/>
</svg>
