<svg width="17" height="18" viewBox="0 0 17 18" fill="none" xmlns="http://www.w3.org/2000/svg">
<path d="M9.91667 7.5H13.2912C13.5326 7.50001 13.7701 7.56536 13.9809 7.68984C14.1918 7.81433 14.3692 7.99382 14.4961 8.21127C14.6231 8.42873 14.6954 8.67693 14.7063 8.93232C14.7172 9.18771 14.6663 9.44181 14.5584 9.6705L12.0792 14.9205C11.9615 15.1698 11.7806 15.3795 11.5566 15.5261C11.3326 15.6726 11.0746 15.7501 10.8113 15.75H7.96592C7.85046 15.75 7.735 15.735 7.62237 15.705L4.95833 15M9.91667 7.5V3.75C9.91667 3.35218 9.76741 2.97064 9.50173 2.68934C9.23606 2.40804 8.87572 2.25 8.5 2.25H8.43271C8.07854 2.25 7.79167 2.55375 7.79167 2.92875C7.79167 3.46425 7.64221 3.98775 7.361 4.43325L4.95833 8.25V15M9.91667 7.5H8.5M4.95833 15H3.54167C3.16594 15 2.80561 14.842 2.53993 14.5607C2.27426 14.2794 2.125 13.8978 2.125 13.5V9C2.125 8.60218 2.27426 8.22064 2.53993 7.93934C2.80561 7.65804 3.16594 7.5 3.54167 7.5H5.3125" stroke="black" stroke-width="2" stroke-linecap="round" stroke-linejoin="round"/>
</svg>
