<svg width="26" height="26" viewBox="0 0 26 26" fill="none" xmlns="http://www.w3.org/2000/svg">
<path d="M6.5 7.3125V24.1719C6.5 24.2257 6.5214 24.2774 6.5595 24.3155C6.59759 24.3536 6.64925 24.375 6.70312 24.375H11.7848C11.8455 24.375 11.9054 24.3615 11.9602 24.3352C12.0149 24.3091 12.0631 24.271 12.1013 24.2238C12.1393 24.1764 12.1664 24.1213 12.1802 24.0622C12.1942 24.0032 12.1948 23.9418 12.1819 23.8824L10.5986 17.875H11.7812C11.889 17.875 11.9923 17.8322 12.0685 17.7561C12.1447 17.6798 12.1875 17.5765 12.1875 17.4688V7.3125H6.5Z" fill="#F1C21B"/>
<path d="M22.9622 9.47324L22.75 9.41992V1.82812C22.75 1.77425 22.7286 1.72259 22.6905 1.6845C22.6524 1.6464 22.6007 1.625 22.5469 1.625H20.3887C20.3395 1.6252 20.292 1.64324 20.2551 1.67579L13.8125 7.3125V15.4375L20.2551 21.0742C20.292 21.1068 20.3395 21.1248 20.3887 21.125H22.5469C22.6007 21.125 22.6524 21.1036 22.6905 21.0655C22.7286 21.0274 22.75 20.9757 22.75 20.9219V13.3301L22.9622 13.2768C23.4508 13.1442 24.375 12.577 24.375 11.375C24.375 10.173 23.4508 9.60579 22.9622 9.47324Z" fill="#F1C21B"/>
<path d="M4.875 7.3125H2.64062C2.58675 7.3125 2.53509 7.3339 2.497 7.372C2.4589 7.41009 2.4375 7.46175 2.4375 7.51562V9.32293C2.36062 9.39139 2.28866 9.46521 2.22219 9.54383C1.95 9.86781 1.625 10.4477 1.625 11.375C1.625 12.4003 2.02566 13.0574 2.4375 13.4276V15.2344C2.4375 15.2882 2.4589 15.3399 2.497 15.378C2.53509 15.416 2.58675 15.4375 2.64062 15.4375H4.875V7.3125Z" fill="#F1C21B"/>
</svg>
