<svg width="25" height="24" viewBox="0 0 25 24" fill="none" xmlns="http://www.w3.org/2000/svg">
<path d="M11.257 11.9999L16.207 16.9499C16.3026 17.0422 16.3787 17.1525 16.4311 17.2745C16.4836 17.3965 16.5111 17.5278 16.5123 17.6605C16.5135 17.7933 16.4882 17.925 16.4379 18.0479C16.3876 18.1708 16.3133 18.2824 16.2194 18.3763C16.1256 18.4702 16.0139 18.5445 15.891 18.5948C15.7681 18.645 15.6364 18.6703 15.5036 18.6692C15.3709 18.668 15.2396 18.6404 15.1176 18.588C14.9956 18.5356 14.8853 18.4594 14.793 18.3639L9.13605 12.7069C8.94858 12.5194 8.84326 12.2651 8.84326 11.9999C8.84326 11.7348 8.94858 11.4805 9.13605 11.2929L14.793 5.63594C14.9817 5.45378 15.2343 5.35298 15.4964 5.35526C15.7586 5.35754 16.0095 5.46271 16.1949 5.64812C16.3803 5.83353 16.4854 6.08434 16.4877 6.34654C16.49 6.60873 16.3892 6.86133 16.207 7.04994L11.257 11.9999Z" fill="#697077"/>
</svg>
