<svg width="25" height="24" viewBox="0 0 25 24" fill="none" xmlns="http://www.w3.org/2000/svg">
<path d="M13.814 12.071L8.86396 7.12098C8.68181 6.93238 8.58101 6.67978 8.58329 6.41758C8.58557 6.15538 8.69074 5.90457 8.87615 5.71916C9.06155 5.53375 9.31237 5.42859 9.57456 5.42631C9.83676 5.42403 10.0894 5.52482 10.278 5.70698L15.935 11.364C16.1224 11.5515 16.2278 11.8058 16.2278 12.071C16.2278 12.3361 16.1224 12.5905 15.935 12.778L10.278 18.435C10.0894 18.6171 9.83676 18.7179 9.57456 18.7157C9.31237 18.7134 9.06155 18.6082 8.87615 18.4228C8.69074 18.2374 8.58557 17.9866 8.58329 17.7244C8.58101 17.4622 8.68181 17.2096 8.86396 17.021L13.814 12.071Z" fill="#0F62FE"/>
</svg>
