<svg width="24" height="24" viewBox="0 0 24 24" fill="none" xmlns="http://www.w3.org/2000/svg">
<path d="M12.2252 10.594L6.71616 16.104L4.84616 15.327L4.67916 15.496L7.05916 17.083L8.64716 19.463L8.81516 19.295L8.03916 17.425L13.5482 11.917L17.8762 18.169L18.0862 17.961L15.1992 10.265L19.5992 5.86701C19.686 5.78014 19.7549 5.67701 19.802 5.56351C19.849 5.45001 19.8732 5.32836 19.8732 5.20551C19.8732 5.08266 19.849 4.96101 19.802 4.84751C19.7549 4.73401 19.686 4.63088 19.5992 4.54401C19.5123 4.45714 19.4092 4.38823 19.2957 4.34122C19.1822 4.29421 19.0605 4.27001 18.9377 4.27001C18.8148 4.27001 18.6932 4.29421 18.5797 4.34122C18.4662 4.38823 18.363 4.45714 18.2762 4.54401L13.8762 8.94301L6.18216 6.05701L5.97216 6.26601L12.2252 10.594ZM17.6152 21.077L13.2852 14.824L10.2452 17.864L11.0222 19.734L8.35616 22.399L5.71116 18.432L1.74316 15.786L4.40916 13.12L6.27816 13.896L9.31816 10.856L3.06516 6.52801L5.71116 3.88301L13.4062 6.76801L16.9532 3.22101C17.2126 2.95534 17.5221 2.74379 17.8639 2.59863C18.2056 2.45346 18.5728 2.37757 18.9441 2.37536C19.3154 2.37314 19.6835 2.44463 20.0269 2.5857C20.3704 2.72677 20.6825 2.93461 20.945 3.19716C21.2076 3.45972 21.4154 3.77177 21.5565 4.11524C21.6975 4.45871 21.769 4.82676 21.7668 5.19807C21.7646 5.56937 21.6887 5.93654 21.5436 6.2783C21.3984 6.62006 21.1868 6.92961 20.9212 7.18901L17.3742 10.736L20.2602 18.432L17.6142 21.077H17.6152Z" fill="#21272A"/>
</svg>
