<svg width="24" height="24" viewBox="0 0 24 24" fill="none" xmlns="http://www.w3.org/2000/svg">
<path d="M11.586 18.071L13 16.657L14.414 18.071L20.579 11.906L21.669 8.354L19.185 5.871L18.106 6.207L16.508 4.609L18.591 3.96C18.9391 3.85183 19.3102 3.84086 19.6641 3.92828C20.018 4.01569 20.3413 4.19818 20.599 4.456L23.082 6.939C23.3387 7.19576 23.5207 7.51757 23.6085 7.86991C23.6962 8.22225 23.6864 8.59183 23.58 8.939L22.345 12.97L14.415 20.9L11.585 18.072L11.586 18.071ZM14.236 3.75L16.718 6.233C16.9747 6.48976 17.1567 6.81157 17.2445 7.16391C17.3322 7.51625 17.3224 7.88583 17.216 8.233L15.981 12.261L8.051 20.192L0.270996 12.414L8.17 4.516L12.227 3.254C12.5751 3.14583 12.9462 3.13486 13.3001 3.22228C13.654 3.30969 13.9773 3.49218 14.235 3.75H14.236ZM3.1 12.414L8.05 17.364L14.214 11.199L15.304 7.647L12.82 5.164L9.235 6.279L3.1 12.414ZM10.524 9.939C10.3807 9.80063 10.2665 9.63512 10.1878 9.45211C10.1092 9.2691 10.0679 9.07227 10.0661 8.87311C10.0644 8.67394 10.1023 8.47642 10.1778 8.29207C10.2532 8.10773 10.3646 7.94025 10.5054 7.79941C10.6462 7.65857 10.8137 7.54719 10.9981 7.47177C11.1824 7.39635 11.3799 7.3584 11.5791 7.36013C11.7783 7.36186 11.9751 7.40324 12.1581 7.48185C12.3411 7.56046 12.5066 7.67474 12.645 7.818C12.9135 8.10171 13.0607 8.47895 13.0554 8.86952C13.05 9.26009 12.8925 9.63316 12.6164 9.90943C12.3403 10.1857 11.9673 10.3433 11.5767 10.3489C11.1861 10.3544 10.8088 10.2073 10.525 9.939H10.524ZM17.41 10.961L18.192 8.083C18.642 8.235 18.947 8.408 19.109 8.601C19.3646 8.90576 19.4887 9.29956 19.454 9.69581C19.4194 10.0921 19.2287 10.4583 18.924 10.714C18.634 10.958 18.129 11.04 17.41 10.961Z" fill="#21272A"/>
</svg>
