<svg width="125" height="125" viewBox="0 0 125 125" fill="none" xmlns="http://www.w3.org/2000/svg">
<path d="M64.0915 80.4337L64.4842 74.9364L69.2737 72.2032C73.8724 69.5381 78.0976 66.2754 81.839 62.5002C95.479 48.855 99.6434 32.8125 94.6265 27.7905C89.6045 22.7789 73.562 26.9329 59.9169 40.578C55.9902 44.5047 52.699 48.793 50.2139 53.1434L47.4755 57.9329L41.9833 58.3255C37.4763 58.6416 33.1994 60.4359 29.8158 63.4302C36.2739 66.2721 42.1455 70.2933 47.1294 75.2877C52.1927 80.351 56.1813 86.2255 58.9868 92.6012C61.9811 89.2177 63.7754 84.9408 64.0915 80.4337ZM48.731 95.0502C47.6919 96.4631 46.5468 97.7947 45.3055 99.0337C39.2502 105.089 30.1155 106.913 17.9015 104.51C15.5042 92.3015 17.3332 83.1669 23.3782 77.1115C24.6595 75.8405 25.9925 74.6935 27.3668 73.686C23.1312 71.6169 18.6049 70.2056 13.9438 69.501C15.4444 64.7907 18.0545 60.5098 21.5543 57.0184C26.8161 51.7435 33.8074 48.5488 41.2393 48.0232C44.3589 42.625 48.1812 37.6647 52.606 33.2724C69.7593 16.119 91.8417 10.3995 101.932 20.4849C112.018 30.5754 106.293 52.6577 89.1447 69.8059C84.7523 74.2307 79.7921 78.053 74.3939 81.1725C73.8683 88.6045 70.6735 95.5958 65.3987 100.858C61.9102 104.362 57.6284 106.975 52.916 108.473C52.2114 103.812 50.8002 99.2858 48.731 95.0502ZM39.8185 82.5985C38.9866 81.7646 38.0485 81.0437 37.0285 80.4544C34.7965 81.2294 32.1718 82.9344 29.7693 85.3317C28.6378 86.4684 27.2532 90.2865 27.2377 95.1742C32.1253 95.1587 35.959 93.7585 37.0802 92.6425C39.4827 90.2349 41.1877 87.6154 41.9575 85.3834C41.3698 84.3637 40.6507 83.4256 39.8185 82.5934V82.5985ZM80.0048 42.4019C79.5002 41.9279 79.0959 41.3574 78.816 40.7242C78.5362 40.091 78.3864 39.408 78.3756 38.7158C78.3649 38.0235 78.4934 37.3362 78.7534 36.6946C79.0135 36.053 79.3999 35.4702 79.8896 34.9809C80.3793 34.4915 80.9624 34.1055 81.6042 33.8459C82.2459 33.5863 82.9334 33.4583 83.6256 33.4696C84.3178 33.4808 85.0007 33.631 85.6337 33.9114C86.2667 34.1917 86.837 34.5964 87.3105 35.1014C88.2014 36.0839 88.6803 37.3714 88.6481 38.6972C88.616 40.0231 88.0752 41.2858 87.1377 42.224C86.2002 43.1621 84.9379 43.7038 83.612 43.7369C82.2861 43.7701 80.9983 43.292 80.0152 42.4019H80.0048Z" fill="#C1C7CD"/>
</svg>
