<svg width="35" height="36" viewBox="0 0 35 36" fill="none" xmlns="http://www.w3.org/2000/svg">
<path d="M10.3461 17.9251C13.0527 17.9251 15.2469 15.668 15.2469 12.8837C15.2469 10.0994 13.0527 7.84229 10.3461 7.84229C7.63947 7.84229 5.44531 10.0994 5.44531 12.8837C5.44531 15.668 7.63947 17.9251 10.3461 17.9251Z" fill="#007AFF"/>
<path d="M15.9274 20.7258C14.0106 19.7246 11.8951 19.3254 10.3459 19.3254C7.31149 19.3254 1.08887 21.2398 1.08887 25.067V28.0079H11.2988V26.8826C11.2988 25.5523 11.8434 24.2184 12.7963 23.1066C13.5566 22.2187 14.6211 21.3946 15.9274 20.7258Z" fill="#007AFF"/>
<path d="M23.1428 20.1655C19.5985 20.1655 12.5244 22.4174 12.5244 26.8874V30.2483H33.7611V26.8874C33.7611 22.4174 26.687 20.1655 23.1428 20.1655Z" fill="#007AFF"/>
<path d="M23.1422 17.925C26.4503 17.925 29.132 15.1663 29.132 11.7633C29.132 8.36026 26.4503 5.60156 23.1422 5.60156C19.8341 5.60156 17.1523 8.36026 17.1523 11.7633C17.1523 15.1663 19.8341 17.925 23.1422 17.925Z" fill="#007AFF"/>
</svg>
